<svg width="18" height="18" viewBox="0 0 18 18" fill="none" xmlns="http://www.w3.org/2000/svg">
<path d="M17.8939 12.553C18.0123 12.7901 18.0318 13.0646 17.948 13.316C17.8641 13.5675 17.6839 13.7754 17.4469 13.894L9.44691 17.894C9.30811 17.9634 9.15507 17.9995 8.99991 17.9995C8.84474 17.9995 8.69171 17.9634 8.55291 17.894L0.55291 13.894C0.324181 13.7707 0.15245 13.5631 0.0740933 13.3153C-0.00426379 13.0676 0.0169076 12.799 0.133123 12.5666C0.249338 12.3342 0.451469 12.1561 0.6967 12.0701C0.941931 11.9842 1.211 11.997 1.44691 12.106L8.99991 15.88L16.5539 12.105C16.791 11.9866 17.0655 11.9671 17.3169 12.051C17.5684 12.1348 17.7763 12.315 17.8949 12.552M17.8949 8.552C18.0133 8.78913 18.0328 9.06356 17.949 9.31501C17.8651 9.56646 17.6849 9.77435 17.4479 9.893L9.44791 13.893C9.30911 13.9624 9.15607 13.9985 9.00091 13.9985C8.84575 13.9985 8.69271 13.9624 8.55391 13.893L0.55391 9.893C0.325181 9.76966 0.15345 9.56212 0.0750933 9.31435C-0.00326386 9.06658 0.0179077 8.79804 0.134123 8.56561C0.250338 8.33318 0.452469 8.15511 0.6977 8.06914C0.94293 7.98316 1.212 7.99602 1.44791 8.105L8.99991 11.88L16.5539 8.105C16.791 7.98658 17.0655 7.96714 17.3169 8.05096C17.5684 8.13477 17.7763 8.31499 17.8949 8.552ZM9.00791 0C9.04524 0 9.08224 0.0023333 9.11891 0.00699997L9.22991 0.027L9.31591 0.0510001L9.32791 0.0569999L9.33991 0.059L9.36891 0.073L9.41891 0.092L9.43491 0.101L9.44691 0.106L17.4469 4.106C17.6128 4.18914 17.7523 4.31679 17.8497 4.47467C17.9472 4.63256 17.9988 4.81445 17.9988 5C17.9988 5.18555 17.9472 5.36744 17.8497 5.52532C17.7523 5.68321 17.6128 5.81086 17.4469 5.894L9.44691 9.894C9.30811 9.96336 9.15507 9.99947 8.99991 9.99947C8.84474 9.99947 8.69171 9.96336 8.55291 9.894L0.55291 5.894C0.387028 5.81086 0.247549 5.68321 0.150075 5.52532C0.052601 5.36744 0.000976562 5.18555 0.000976562 5C0.000976562 4.81445 0.052601 4.63256 0.150075 4.47467C0.247549 4.31679 0.387028 4.18914 0.55291 4.106L8.55291 0.106L8.56391 0.101L8.58191 0.0910001L8.65991 0.059L8.67091 0.0569999L8.68391 0.0510001L8.76991 0.027L8.87991 0.00699997L8.93591 0.00200009L9.00791 0Z" fill="#38DED3"/>
</svg>
